<svg width="108" height="100" viewBox="0 0 108 100" fill="none" xmlns="http://www.w3.org/2000/svg">
<path d="M29.1925 87.5C27.3286 87.5 25.7443 86.8924 24.4396 85.6771C23.1349 84.4618 22.4825 82.9861 22.4825 81.25V21.875H17.8973V15.625H38.922V12.5H68.446V15.625H89.4707V21.875H84.8855V81.25C84.8855 82.9167 84.2145 84.375 82.8725 85.625C81.5305 86.875 79.9648 87.5 78.1755 87.5H29.1925ZM78.1755 21.875H29.1925V81.25H78.1755V21.875ZM41.0468 72.2917H47.7568V30.7292H41.0468V72.2917ZM59.6112 72.2917H66.3212V30.7292H59.6112V72.2917ZM29.1925 21.875V81.25V21.875Z" fill="#7B7B7B"/>
</svg>
