<svg width="24" height="24" viewBox="0 0 24 24" fill="none" xmlns="http://www.w3.org/2000/svg">
<path d="M15.9089 12.124L23.9999 17.239V6.79297L15.9089 12.124Z" fill="#CAD1D7"/>
<path d="M0 6.79297V17.239L8.091 12.124L0 6.79297Z" fill="#CAD1D7"/>
<path d="M22.4999 3.75H1.49992C0.751422 3.75 0.157422 4.308 0.0449219 5.0265L11.9999 12.903L23.9549 5.0265C23.8424 4.308 23.2484 3.75 22.4999 3.75Z" fill="#CAD1D7"/>
<path d="M14.5351 13.0288L12.4126 14.4268C12.2866 14.5093 12.1441 14.5498 12.0001 14.5498C11.8561 14.5498 11.7136 14.5093 11.5876 14.4268L9.4651 13.0273L0.0480957 18.9838C0.163596 19.6963 0.754596 20.2498 1.5001 20.2498H22.5001C23.2456 20.2498 23.8366 19.6963 23.9521 18.9838L14.5351 13.0288Z" fill="#CAD1D7"/>
</svg>
