<svg width="101" height="101" viewBox="0 0 101 101" fill="none" xmlns="http://www.w3.org/2000/svg">
<path d="M80.8311 87.8268L54.6853 61.681L60.6228 55.7435L86.7686 81.8893L80.8311 87.8268ZM20.3103 87.8268L14.3728 81.8893L44.5811 51.681L33.4353 40.5352L31.0395 42.931L26.4561 38.3477V47.2018L23.9561 49.7018L11.2478 36.9935L13.7478 34.4935H22.7061L17.7061 29.4935L31.352 15.8477C32.5325 14.6671 33.8172 13.8685 35.2061 13.4518C36.595 13.0352 38.1228 12.8268 39.7895 12.8268C41.4561 12.8268 42.9839 13.122 44.3728 13.7122C45.7617 14.3025 47.0464 15.1879 48.227 16.3685L37.0811 27.5143L42.0811 32.5143L39.5811 35.0143L50.4145 45.8477L63.1228 33.1393C62.5672 32.2365 62.1332 31.1949 61.8207 30.0143C61.5082 28.8338 61.352 27.5838 61.352 26.2643C61.352 22.5838 62.6888 19.4067 65.3624 16.7331C68.036 14.0595 71.2131 12.7227 74.8936 12.7227C75.9353 12.7227 76.8207 12.8268 77.5499 13.0352C78.2791 13.2435 78.8867 13.5213 79.3728 13.8685L70.5186 22.7227L78.3311 30.5352L87.1853 21.681C87.5325 22.2365 87.8277 22.9136 88.0707 23.7122C88.3138 24.5109 88.4353 25.431 88.4353 26.4727C88.4353 30.1532 87.0985 33.3303 84.4249 36.0039C81.7513 38.6775 78.5742 40.0143 74.8936 40.0143C73.6436 40.0143 72.5673 39.9275 71.6645 39.7539C70.7617 39.5803 69.9284 39.3199 69.1645 38.9727L20.3103 87.8268Z" fill="#737373"/>
</svg>
