<svg width="24" height="24" viewBox="0 0 24 24" fill="none" xmlns="http://www.w3.org/2000/svg">
<path d="M1.79004 20.2492C1.30671 20.2492 0.894206 20.0784 0.552539 19.7367C0.210872 19.3951 0.0400391 18.9826 0.0400391 18.4992C0.0400391 18.0159 0.210872 17.6034 0.552539 17.2617C0.894206 16.9201 1.30671 16.7492 1.79004 16.7492C1.87337 16.7492 1.95671 16.7534 2.04004 16.7617C2.12337 16.7701 2.23171 16.7909 2.36504 16.8242L7.36504 11.8242C7.33171 11.6909 7.31087 11.5826 7.30254 11.4992C7.29421 11.4159 7.29004 11.3326 7.29004 11.2492C7.29004 10.7659 7.46087 10.3534 7.80254 10.0117C8.14421 9.67005 8.55671 9.49922 9.04004 9.49922C9.52337 9.49922 9.93587 9.67005 10.2775 10.0117C10.6192 10.3534 10.79 10.7659 10.79 11.2492C10.79 11.2826 10.765 11.4742 10.715 11.8242L13.465 14.5742C13.5984 14.5409 13.7067 14.5201 13.79 14.5117C13.8734 14.5034 13.9567 14.4992 14.04 14.4992C14.1234 14.4992 14.2067 14.5034 14.29 14.5117C14.3734 14.5201 14.4817 14.5409 14.615 14.5742L18.615 10.5742C18.5817 10.4409 18.5609 10.3326 18.5525 10.2492C18.5442 10.1659 18.54 10.0826 18.54 9.99922C18.54 9.51589 18.7109 9.10339 19.0525 8.76172C19.3942 8.42005 19.8067 8.24922 20.29 8.24922C20.7734 8.24922 21.1859 8.42005 21.5275 8.76172C21.8692 9.10339 22.04 9.51589 22.04 9.99922C22.04 10.4826 21.8692 10.8951 21.5275 11.2367C21.1859 11.5784 20.7734 11.7492 20.29 11.7492C20.2067 11.7492 20.1234 11.7451 20.04 11.7367C19.9567 11.7284 19.8484 11.7076 19.715 11.6742L15.715 15.6742C15.7484 15.8076 15.7692 15.9159 15.7775 15.9992C15.7859 16.0826 15.79 16.1659 15.79 16.2492C15.79 16.7326 15.6192 17.1451 15.2775 17.4867C14.9359 17.8284 14.5234 17.9992 14.04 17.9992C13.5567 17.9992 13.1442 17.8284 12.8025 17.4867C12.4609 17.1451 12.29 16.7326 12.29 16.2492C12.29 16.1659 12.2942 16.0826 12.3025 15.9992C12.3109 15.9159 12.3317 15.8076 12.365 15.6742L9.61504 12.9242C9.48171 12.9576 9.37337 12.9784 9.29004 12.9867C9.20671 12.9951 9.12337 12.9992 9.04004 12.9992C9.00671 12.9992 8.81504 12.9742 8.46504 12.9242L3.46504 17.9242C3.49837 18.0576 3.51921 18.1659 3.52754 18.2492C3.53587 18.3326 3.54004 18.4159 3.54004 18.4992C3.54004 18.9826 3.36921 19.3951 3.02754 19.7367C2.68587 20.0784 2.27337 20.2492 1.79004 20.2492ZM3.04004 9.19922L2.54004 8.09922L1.44004 7.59922L2.54004 7.09922L3.04004 5.99922L3.54004 7.09922L4.64004 7.59922L3.54004 8.09922L3.04004 9.19922ZM14.04 7.92422L13.265 6.27422L11.615 5.49922L13.265 4.72422L14.04 3.07422L14.815 4.72422L16.465 5.49922L14.815 6.27422L14.04 7.92422Z" fill="#368C9A"/>
</svg>
