<svg width="23" height="19" viewBox="0 0 23 19" fill="none" xmlns="http://www.w3.org/2000/svg">
<path d="M1.86466 18.0938C1.36119 18.0938 0.931505 17.9158 0.575602 17.5599C0.219699 17.204 0.041748 16.7743 0.041748 16.2708C0.041748 15.7674 0.219699 15.3377 0.575602 14.9818C0.931505 14.6259 1.36119 14.4479 1.86466 14.4479C1.95147 14.4479 2.03828 14.4523 2.12508 14.4609C2.21189 14.4696 2.32473 14.4913 2.46362 14.526L7.67196 9.31771C7.63723 9.17882 7.61553 9.06597 7.60685 8.97917C7.59817 8.89236 7.59383 8.80556 7.59383 8.71875C7.59383 8.21528 7.77178 7.78559 8.12768 7.42969C8.48359 7.07379 8.91328 6.89583 9.41675 6.89583C9.92022 6.89583 10.3499 7.07379 10.7058 7.42969C11.0617 7.78559 11.2397 8.21528 11.2397 8.71875C11.2397 8.75347 11.2136 8.95313 11.1615 9.31771L14.0261 12.1823C14.165 12.1476 14.2779 12.1259 14.3647 12.1172C14.4515 12.1085 14.5383 12.1042 14.6251 12.1042C14.7119 12.1042 14.7987 12.1085 14.8855 12.1172C14.9723 12.1259 15.0852 12.1476 15.224 12.1823L19.3907 8.01563C19.356 7.87674 19.3343 7.76389 19.3256 7.67708C19.3169 7.59028 19.3126 7.50347 19.3126 7.41667C19.3126 6.9132 19.4905 6.48351 19.8464 6.1276C20.2023 5.7717 20.632 5.59375 21.1355 5.59375C21.639 5.59375 22.0687 5.7717 22.4246 6.1276C22.7805 6.48351 22.9584 6.9132 22.9584 7.41667C22.9584 7.92014 22.7805 8.34983 22.4246 8.70573C22.0687 9.06163 21.639 9.23958 21.1355 9.23958C21.0487 9.23958 20.9619 9.23524 20.8751 9.22656C20.7883 9.21788 20.6754 9.19618 20.5365 9.16146L16.3699 13.3281C16.4046 13.467 16.4263 13.5799 16.435 13.6667C16.4437 13.7535 16.448 13.8403 16.448 13.9271C16.448 14.4306 16.27 14.8602 15.9141 15.2161C15.5582 15.572 15.1286 15.75 14.6251 15.75C14.1216 15.75 13.6919 15.572 13.336 15.2161C12.9801 14.8602 12.8022 14.4306 12.8022 13.9271C12.8022 13.8403 12.8065 13.7535 12.8152 13.6667C12.8239 13.5799 12.8456 13.467 12.8803 13.3281L10.0157 10.4635C9.87682 10.4983 9.76397 10.52 9.67716 10.5286C9.59036 10.5373 9.50355 10.5417 9.41675 10.5417C9.38203 10.5417 9.18237 10.5156 8.81779 10.4635L3.60946 15.6719C3.64418 15.8108 3.66588 15.9236 3.67456 16.0104C3.68324 16.0972 3.68758 16.184 3.68758 16.2708C3.68758 16.7743 3.50963 17.204 3.15373 17.5599C2.79782 17.9158 2.36814 18.0938 1.86466 18.0938ZM3.16675 6.58333L2.64591 5.4375L1.50008 4.91667L2.64591 4.39583L3.16675 3.25L3.68758 4.39583L4.83341 4.91667L3.68758 5.4375L3.16675 6.58333ZM14.6251 5.25521L13.8178 3.53646L12.099 2.72917L13.8178 1.92188L14.6251 0.203125L15.4324 1.92188L17.1511 2.72917L15.4324 3.53646L14.6251 5.25521Z" fill="#252B42"/>
</svg>
