<svg width="75" height="75" viewBox="0 0 75 75" fill="none" xmlns="http://www.w3.org/2000/svg">
<path d="M37.5 0C16.7893 0 0 16.7893 0 37.5C0 58.2107 16.7893 75 37.5 75C58.2107 75 75 58.2107 75 37.5C74.978 16.7986 58.2016 0.0221296 37.5 0ZM58.1438 26.0009L31.358 52.7867C30.3119 53.8325 28.6164 53.8325 27.5705 52.7867L16.8562 42.0724C15.7921 41.0447 15.7626 39.349 16.7903 38.2849C17.818 37.2208 19.5136 37.1913 20.5777 38.219C20.6 38.2406 20.622 38.2625 20.6437 38.2849L29.4643 47.1055L54.3563 22.2134C55.4205 21.1858 57.1161 21.2153 58.1438 22.2792C59.1464 23.3173 59.1464 24.9629 58.1438 26.0009Z" fill="#368C9A"/>
</svg>
