<svg width="38" height="31" viewBox="0 0 38 31" fill="none" xmlns="http://www.w3.org/2000/svg">
<path d="M10.0941 27.125C9.45176 27.125 8.90576 26.9366 8.4561 26.5599C8.00645 26.1832 7.78162 25.7257 7.78162 25.1875V6.78125H6.20142V4.84375H13.4472V3.875H23.6222V4.84375H30.8681V6.78125H29.2879V25.1875C29.2879 25.7042 29.0566 26.1562 28.5941 26.5437C28.1316 26.9312 27.592 27.125 26.9754 27.125H10.0941ZM26.9754 6.78125H10.0941V25.1875H26.9754V6.78125ZM14.1795 22.4104H16.492V9.52604H14.1795V22.4104ZM20.5775 22.4104H22.89V9.52604H20.5775V22.4104ZM10.0941 6.78125V25.1875V6.78125Z" fill="white"/>
</svg>
