<svg width="42" height="43" viewBox="0 0 42 43" fill="none" xmlns="http://www.w3.org/2000/svg">
<circle cx="20.9845" cy="21.3223" r="20.9845" fill="#F5F5F5"/>
<path d="M15.2766 34.2174C14.6611 34.2174 14.1715 34.0315 13.8077 33.6598C13.444 33.288 13.2341 32.8086 13.1782 32.2217L10.9119 10.7383H31.0569L28.7906 32.2217C28.7347 32.8086 28.5248 33.288 28.1611 33.6598C27.7974 34.0315 27.317 34.2174 26.7202 34.2174H15.2766ZM13.5419 19.5429L14.8849 32.4565H27.0839L28.4269 19.5429H13.5419ZM13.3461 17.782H28.6227L29.1823 12.4992H12.7865L13.3461 17.782ZM20.9844 30.901C21.8238 30.901 22.5373 30.6026 23.1248 30.0058C23.7124 29.4091 24.0062 28.6705 24.0062 27.79C24.0062 26.8704 23.7404 25.8921 23.2088 24.8551C22.6772 23.8181 21.9357 22.83 20.9844 21.8909C20.0331 22.83 19.2917 23.8181 18.7601 24.8551C18.2284 25.8921 17.9626 26.8704 17.9626 27.79C17.9626 28.6705 18.2564 29.4091 18.844 30.0058C19.4316 30.6026 20.145 30.901 20.9844 30.901ZM20.9844 29.14C20.6113 29.14 20.2942 29.0031 20.0331 28.7292C19.772 28.4552 19.6414 28.1226 19.6414 27.7313C19.6414 27.3204 19.7487 26.8313 19.9632 26.2638C20.1777 25.6964 20.5181 25.0997 20.9844 24.4736C21.4507 25.1192 21.7911 25.7258 22.0056 26.2932C22.2202 26.8606 22.3274 27.34 22.3274 27.7313C22.3274 28.1226 22.1968 28.4552 21.9357 28.7292C21.6746 29.0031 21.3575 29.14 20.9844 29.14Z" fill="#1DA1F2"/>
</svg>
