<svg width="42" height="43" viewBox="0 0 42 43" fill="none" xmlns="http://www.w3.org/2000/svg">
<circle cx="20.9845" cy="21.7677" r="20.9845" fill="#F5F5F5"/>
<path d="M15.0298 31.7897V22.1465C14.1205 21.9543 13.3467 21.4957 12.7084 20.7707C12.0701 20.0457 11.751 19.1766 11.751 18.1634V10.8262H13.3248V18.1634H15.0298V10.8262H16.6036V18.1634H18.3086V10.8262H19.8825V18.1634C19.8825 19.1766 19.5633 20.0457 18.925 20.7707C18.2868 21.4957 17.513 21.9543 16.6036 22.1465V31.7897H15.0298ZM25.9155 31.7897V23.4043H22.899V15.4119C22.899 14.0318 23.3187 12.9225 24.158 12.084C24.9974 11.2454 26.1078 10.8262 27.4893 10.8262V31.7897H25.9155Z" fill="#800080"/>
</svg>
