<svg width="147" height="26" viewBox="0 0 147 26" fill="none" xmlns="http://www.w3.org/2000/svg">
<path d="M12.9886 10.5867C13.9632 10.5867 14.7567 11.3802 14.7567 12.3548V22.346C14.7567 23.3207 13.9632 24.1141 12.9886 24.1141H2.99737C2.02274 24.1141 1.22931 23.3207 1.22931 22.346V12.3548C1.22931 11.3802 2.02274 10.5867 2.99737 10.5867H12.9886ZM12.9886 9.35742H2.99737C1.34196 9.35742 0 10.6994 0 12.3548V22.346C0 24.0014 1.34196 25.3434 2.99737 25.3434H12.9886C14.644 25.3434 15.986 24.0014 15.986 22.346V12.3548C15.986 10.6994 14.644 9.35742 12.9886 9.35742Z" fill="#008080"/>
<path d="M12.0094 0C13.9415 0 15.7953 0.766484 17.1617 2.13293C18.5282 3.49693 19.2971 5.34825 19.2971 7.27793V10.5814C19.2971 12.5111 18.5282 14.3624 17.1617 15.7289C15.7953 17.0928 13.9415 17.8593 12.0094 17.8593C10.0748 17.8593 8.22106 17.0928 6.85461 15.7289C5.48816 14.3624 4.72168 12.5111 4.72168 10.5814V7.27793C4.72168 5.34825 5.48816 3.49693 6.85461 2.13293C8.22106 0.766484 10.0748 0 12.0094 0Z" fill="white"/>
<path d="M20.801 2.49805C12.3672 2.49805 5.4297 9.06337 4.69505 17.409C6.09578 15.4083 7.81241 13.4835 9.95514 11.2722C10.1143 11.1057 10.3788 11.1008 10.5429 11.2649C10.7045 11.4265 10.7069 11.6934 10.5478 11.8599C10.2245 12.1905 9.89637 12.5358 9.56823 12.886C9.37967 13.0843 9.196 13.2827 9.01479 13.4786C8.98051 13.5129 8.94867 13.5496 8.91439 13.5864C6.2672 16.4564 4.37425 18.9542 2.99801 22.0569C2.90495 22.2675 2.99801 22.5173 3.20616 22.6128C3.26248 22.6372 3.3188 22.6495 3.37758 22.6495C3.5343 22.6495 3.68613 22.5564 3.7547 22.4022C4.24446 21.2977 4.81259 20.2717 5.45174 19.275C11.2481 19.1256 16.5229 15.8638 19.2876 10.6747C19.3562 10.5425 19.3513 10.3857 19.2778 10.2584C19.2019 10.1335 19.0672 10.0551 18.9203 10.0551H17.3849L20.1398 8.46095C20.2255 8.41198 20.2941 8.32872 20.3259 8.23321C20.9161 6.49699 21.2149 4.70689 21.2149 2.91925C21.2149 2.68661 21.0288 2.49805 20.801 2.49805Z" fill="#008080"/>
<path d="M24.875 24.2143H27.1157V18.5477H32.2631V24.2143H34.5038V11.5H32.2631V16.6842H27.1157V11.5H24.875V24.2143Z" fill="#008080"/>
<path d="M36.4766 24.2143H44.4549V22.3483H38.6462V18.5306H43.5586V16.8262H38.6462V13.366H44.2761V11.5H36.4766V24.2143Z" fill="#008080"/>
<path d="M45.0127 24.2143H47.2901L48.1668 21.4349H53.0449L53.9069 24.2143H56.2014L52.0041 11.5H49.2075L45.0127 24.2143ZM48.5978 19.6962L50.6058 13.4199H50.6426L52.5967 19.6962H48.5978Z" fill="#008080"/>
<path d="M57.3311 24.2143H64.5747V22.2773H59.5717V11.5H57.3311V24.2143Z" fill="#008080"/>
<path d="M68.5537 24.2143H70.814V13.4542H74.3476V11.5H65.0225V13.4542H68.5537V24.2143Z" fill="#008080"/>
<path d="M75.5488 24.2143H77.7895V18.5477H82.937V24.2143H85.1776V11.5H82.937V16.6842H77.7895V11.5H75.5488V24.2143Z" fill="#008080"/>
<path d="M92.5102 17.9184C94.1925 18.32 95.341 18.7584 95.9508 19.2555C96.372 19.6008 96.5826 20.0391 96.5826 20.5754C96.5826 21.1117 96.4675 21.55 96.2373 21.8562C95.6643 22.6594 94.6333 23.061 93.1787 23.061C91.1535 23.061 90.005 22.3729 89.7577 20.9966H88.1904C88.6484 23.1957 90.3111 24.2829 93.1787 24.2829C94.4594 24.2829 95.532 24.016 96.3916 23.443C97.4225 22.7745 97.9588 21.7802 97.9588 20.4799C97.9588 19.4098 97.5376 18.587 96.6977 18.0139C96.1051 17.5927 95.1476 17.2107 93.8301 16.8654C92.4906 16.5226 91.631 16.2361 91.2294 16.0255C90.3503 15.5847 89.9095 14.9749 89.9291 14.1717C89.9291 13.7505 90.005 13.3881 90.1985 13.1187C90.6956 12.3743 91.5747 11.9923 92.8359 11.9923C94.6137 11.9923 95.6275 12.5653 95.8945 13.6746H97.3466C96.8691 11.8012 95.3582 10.8438 92.8359 10.8438C91.6874 10.8438 90.676 11.1499 89.8336 11.7621C88.9741 12.3743 88.5333 13.273 88.5333 14.495C88.5333 16.1602 89.8728 17.3062 92.5102 17.9184Z" fill="#44C0C5"/>
<path d="M111.818 20.0586H110.346C109.886 20.901 109.257 21.5892 108.453 22.0863C107.65 22.6005 106.752 22.8503 105.797 22.8503C104.361 22.8503 103.14 22.3336 102.126 21.2635C101.131 20.2497 100.654 19.0081 100.654 17.5559C100.654 16.1013 101.131 14.8598 102.126 13.8264C102.584 13.3488 103.14 12.9668 103.769 12.6803C104.381 12.3938 104.993 12.2395 105.606 12.2395C106.198 12.2395 106.715 12.3154 107.173 12.4501C108.569 12.8713 109.619 13.7113 110.327 14.992H111.799C111.301 13.77 110.518 12.7758 109.428 12.0118C108.319 11.2453 107.114 10.8633 105.797 10.8633C103.979 10.8633 102.451 11.5318 101.188 12.8517C100.595 13.4639 100.137 14.1912 99.8116 14.992C99.4687 15.7952 99.3145 16.6572 99.3145 17.5559C99.3145 19.3901 99.9267 20.9378 101.188 22.2381C102.451 23.5776 103.979 24.2266 105.797 24.2266C107.114 24.2266 108.319 23.8445 109.448 23.0805C110.537 22.314 111.321 21.3198 111.818 20.0586Z" fill="#44C0C5"/>
<path d="M115.162 17.6127V12.3159H118.182C118.968 12.3159 119.597 12.5657 120.075 13.0628C120.535 13.5599 120.782 14.1721 120.782 14.9361C120.782 15.7002 120.535 16.332 120.038 16.8487C119.541 17.3629 118.929 17.6127 118.182 17.6127H115.162ZM122.122 14.9557C122.122 13.8464 121.701 12.8914 120.897 12.1445C120.114 11.4196 119.139 11.0352 117.991 11.0352H113.825V24.036H115.162V18.8935H116.71L120.535 24.036H122.33L118.316 18.8935C119.33 18.8371 120.19 18.4723 120.897 17.8037C121.701 17.0593 122.122 16.1018 122.122 14.9557Z" fill="#44C0C5"/>
<path d="M125.561 24.036V11.0352H124.224V24.036H125.561Z" fill="#44C0C5"/>
<path d="M136.917 20.424C136.917 19.5057 136.687 18.722 136.246 18.1098C135.788 17.4976 135.176 17.0764 134.432 16.8658C134.87 16.6748 135.255 16.332 135.541 15.8153C135.673 15.5851 135.769 15.3573 135.847 15.1076C135.923 14.8602 135.96 14.5149 135.96 14.0766C135.96 13.6554 135.847 13.2146 135.654 12.7959C135.081 11.6278 133.839 11.0352 131.946 11.0352H128.43V24.036H132.404C133.724 24.036 134.775 23.7495 135.578 23.1373C135.979 22.8312 136.305 22.4296 136.552 21.9325C136.783 21.4549 136.917 20.9578 136.917 20.424ZM134.623 14.2872C134.623 14.9925 134.412 15.5092 133.991 15.8545C133.572 16.1973 133.016 16.3712 132.328 16.3712H129.767V12.3159H131.946C133.724 12.3159 134.623 12.9869 134.623 14.2872ZM135.578 20.1546C135.578 20.9382 135.311 21.57 134.775 22.0476C134.26 22.5251 133.589 22.7553 132.786 22.7553H129.767V17.7082H132.997C133.668 17.7082 134.26 17.9384 134.775 18.3963C135.005 18.6069 135.196 18.8543 135.35 19.1408C135.502 19.4469 135.578 19.7726 135.578 20.1546Z" fill="#44C0C5"/>
<path d="M146.455 24.036V22.7945H140.07V18.1662H146.264V16.905H140.07V12.2792H146.455V11.0352H138.733V24.036H146.455Z" fill="#44C0C5"/>
</svg>
