<svg width="42" height="43" viewBox="0 0 42 43" fill="none" xmlns="http://www.w3.org/2000/svg">
<circle cx="20.9845" cy="21.4317" r="20.9845" fill="#F5F5F5"/>
<path fill-rule="evenodd" clip-rule="evenodd" d="M12.333 9.16406C12.024 9.16406 11.7734 9.41435 11.7734 9.72309V30.9661C11.7734 31.2748 12.024 31.5251 12.333 31.5251H28.0014C28.3105 31.5251 28.561 31.2748 28.561 30.9661V15.3134C28.561 15.1651 28.502 15.0229 28.3971 14.9181L22.8012 9.3278C22.6963 9.22296 22.554 9.16406 22.4056 9.16406H12.333ZM12.8926 30.4071V10.2821H21.846V15.3134C21.846 15.6221 22.0965 15.8724 22.4056 15.8724H27.4418V30.4071H12.8926ZM26.6505 14.7543L22.9651 11.0727V14.7543H26.6505ZM16.2501 25.3758H17.3693V21.4626H18.2566L21.0546 24.2578L19.212 26.0986L20.0034 26.8892L21.846 25.0484L23.6886 26.8892L24.48 26.0986L22.6373 24.2578L24.4801 22.417L23.6886 21.6264L21.846 23.4673L19.8286 21.4519C20.961 21.3411 21.846 20.387 21.846 19.2265C21.846 17.9916 20.8438 16.9904 19.6076 16.9904H16.8097C16.5006 16.9904 16.2501 17.2407 16.2501 17.5495V25.3758ZM19.6076 20.3446H17.3693V18.1085H19.6076C20.2258 18.1085 20.7268 18.609 20.7268 19.2265C20.7268 19.844 20.2258 20.3446 19.6076 20.3446Z" fill="#1ECB67"/>
</svg>
