<svg width="42" height="43" viewBox="0 0 42 43" fill="none" xmlns="http://www.w3.org/2000/svg">
<circle cx="20.9845" cy="21.877" r="20.9845" fill="#F5F5F5"/>
<path d="M25.6533 20.4868C26.0555 20.4868 26.3921 20.3469 26.6632 20.0671C26.9342 19.7873 27.0698 19.455 27.0698 19.0703C27.0698 18.6681 26.9342 18.3315 26.6632 18.0604C26.3921 17.7894 26.0555 17.6539 25.6533 17.6539C25.2686 17.6539 24.9363 17.7894 24.6565 18.0604C24.3768 18.3315 24.2369 18.6681 24.2369 19.0703C24.2369 19.455 24.3768 19.7873 24.6565 20.0671C24.9363 20.3469 25.2686 20.4868 25.6533 20.4868ZM17.994 20.4868C18.3962 20.4868 18.7328 20.3469 19.0039 20.0671C19.2749 19.7873 19.4104 19.455 19.4104 19.0703C19.4104 18.6681 19.2749 18.3315 19.0039 18.0604C18.7328 17.7894 18.3962 17.6539 17.994 17.6539C17.6093 17.6539 17.277 17.7894 16.9972 18.0604C16.7174 18.3315 16.5775 18.6681 16.5775 19.0703C16.5775 19.455 16.7174 19.7873 16.9972 20.0671C17.277 20.3469 17.6093 20.4868 17.994 20.4868ZM18.5186 25.5755H25.1549V24.2902H18.5186V25.5755ZM21.8236 32.3692C20.3722 32.3692 19.0082 32.0938 17.7317 31.543C16.4551 30.9921 15.3447 30.2445 14.4004 29.3002C13.4561 28.3559 12.7085 27.2455 12.1577 25.969C11.6068 24.6924 11.3314 23.3284 11.3314 21.877C11.3314 20.4256 11.6068 19.0616 12.1577 17.785C12.7085 16.5085 13.4561 15.398 14.4004 14.4537C15.3447 13.5094 16.4551 12.7619 17.7317 12.211C19.0082 11.6602 20.3722 11.3848 21.8236 11.3848C23.2751 11.3848 24.6391 11.6602 25.9156 12.211C27.1922 12.7619 28.3026 13.5094 29.2469 14.4537C30.1912 15.398 30.9388 16.5085 31.4896 17.785C32.0405 19.0616 32.3159 20.4256 32.3159 21.877C32.3159 23.3284 32.0405 24.6924 31.4896 25.969C30.9388 27.2455 30.1912 28.3559 29.2469 29.3002C28.3026 30.2445 27.1922 30.9921 25.9156 31.543C24.6391 32.0938 23.2751 32.3692 21.8236 32.3692ZM21.8236 30.7954C24.3068 30.7954 26.414 29.9298 28.1452 28.1986C29.8764 26.4673 30.742 24.3602 30.742 21.877C30.742 19.3938 29.8764 17.2866 28.1452 15.5554C26.414 13.8242 24.3068 12.9586 21.8236 12.9586C19.3405 12.9586 17.2333 13.8242 15.5021 15.5554C13.7709 17.2866 12.9053 19.3938 12.9053 21.877C12.9053 24.3602 13.7709 26.4673 15.5021 28.1986C17.2333 29.9298 19.3405 30.7954 21.8236 30.7954Z" fill="#F7C743"/>
</svg>
