<svg width="42" height="42" viewBox="0 0 42 42" fill="none" xmlns="http://www.w3.org/2000/svg">
<circle cx="20.9845" cy="20.9864" r="20.9845" fill="#F5F5F5"/>
<path d="M7.55444 29.3795L19.8653 8.11523L32.1762 29.3795H7.55444ZM10.4643 27.7007H29.2664L19.8653 11.4727L10.4643 27.7007ZM19.9772 26.1059C20.2197 26.1059 20.4202 26.0266 20.5788 25.8681C20.7373 25.7095 20.8166 25.509 20.8166 25.2665C20.8166 25.024 20.7373 24.8235 20.5788 24.665C20.4202 24.5064 20.2197 24.4272 19.9772 24.4272C19.7348 24.4272 19.5342 24.5064 19.3757 24.665C19.2171 24.8235 19.1379 25.024 19.1379 25.2665C19.1379 25.509 19.2171 25.7095 19.3757 25.8681C19.5342 26.0266 19.7348 26.1059 19.9772 26.1059ZM19.1379 23.0002H20.8166V16.7329H19.1379V23.0002Z" fill="#ED0606"/>
</svg>
